<svg xmlns="http://www.w3.org/2000/svg" viewBox="0 0 100 80">
  <g stroke="#141414" stroke-width="2.5" stroke-linecap="round" stroke-linejoin="round">
    <path d="M8 68 Q8 60 16 60 L20 60 Q20 46 32 46 L34 34 M34 34 Q34 30 38 30" fill="none"/>
    <path d="M34 34 L34 26" fill="none"/>
    <circle cx="34" cy="24" r="3" fill="#141414"/>
    <circle cx="38" cy="28" r="3" fill="#141414"/>
    <circle cx="33" cy="23" r="1" fill="#faf7f2" stroke="none"/>
    <path d="M12 68 Q14 56 26 56 L52 56 Q58 56 60 52" fill="#f3ede2"/>
    <circle cx="58" cy="44" r="20" fill="#f97316"/>
    <path d="M58 44 m0 -10 a10 10 0 1 1 -0.1 0 M58 44 m0 -4 a4 4 0 1 0 0.1 0" fill="none"/>
    <path d="M8 68 L88 68" fill="none"/>
  </g>
</svg>
